<?xml version="1.0" encoding="utf-8"?>
<!-- Generator: Adobe Illustrator 26.2.1, SVG Export Plug-In . SVG Version: 6.00 Build 0)  -->
<svg version="1.1" id="Layer_1" xmlns="http://www.w3.org/2000/svg" xmlns:xlink="http://www.w3.org/1999/xlink" x="0px" y="0px"
	 viewBox="0 0 32 45" style="enable-background:new 0 0 32 45;" xml:space="preserve">
<style type="text/css">
	.st0{fill:#FFFC00;}
</style>
<g id="Layer_2_00000178886368509548672600000012504696453032650682_">
	<g id="FastSpin">
		<path class="st0" d="M32,23.9c-0.1-1.1-0.9-2.1-1.9-2.6l-9.8-6.6c-0.1-0.1-0.2-0.1-0.3-0.2c0,0,0-0.1,0-0.1l5.9-9.7l0.1-0.1l0-0.1
			c0.6-1.8-0.4-3.7-2.2-4.2c-0.3-0.1-0.6-0.1-1-0.2c-0.7,0-1.5,0.3-2,0.7l0,0l0,0L1.3,18c-1.5,1.2-1.7,3.3-0.5,4.8
			c0.3,0.4,0.7,0.7,1.2,0.9l9.8,6.6l0.1,0c0.1,0,0.2,0.1,0.3,0.2l-5.9,9.8l-0.1,0.1l0,0.1c-0.6,1.8,0.4,3.7,2.2,4.2
			c0.3,0.1,0.6,0.1,1,0.2c0.7,0,1.5-0.3,2.1-0.7l0,0l0,0L30.7,27C31.7,26.3,32.1,25.1,32,23.9z"/>
	</g>
</g>
</svg>
